<?xml version="1.0" encoding="utf-8"?>
<svg viewBox="90.53 152.82 331.13 65.14" xmlns="http://www.w3.org/2000/svg">
  <path style="fill: none; stroke-linecap: round; stroke-width: 4px; stroke: rgb(8, 10, 60);" d="M 190.652 205.205 L 196.136 182.65 L 184.612 165.806 L 166.559 165.806"/>
  <ellipse style="fill: none; stroke-linecap: round; stroke-width: 4px; stroke: rgb(8, 10, 60);" cx="110.078" cy="208.056" rx="7.573" ry="7.902"/>
  <path style="fill: none; fill-rule: evenodd; stroke-linecap: round; stroke-width: 4px; stroke: rgb(8, 10, 60);" d="M 190.549 205.535 L 183.062 205.706"/>
  <path style="fill: none; stroke-linecap: round; stroke-width: 4px; stroke: rgb(8, 10, 60);" d="M 165.408 205.794 L 118.922 205.684"/>
  <path style="fill: none; stroke-linecap: round; stroke-width: 4px; stroke: rgb(8, 10, 60);" d="M 100.67 205.904 L 92.864 205.684 L 103.419 162.853 L 166.86 162.951 L 155.865 205.733"/>
  <path style="fill: rgb(216, 216, 216); stroke-linecap: round; stroke-width: 4px; stroke: rgb(8, 10, 60);" d="M 92.534 190.841 L 125.079 191.024"/>
  <path style="fill: rgb(216, 216, 216); stroke-linecap: round; stroke-width: 4px; stroke: rgb(8, 10, 60);" d="M 92.534 182.815 L 127.828 182.888"/>
  <path style="fill: rgb(216, 216, 216); stroke-miterlimit: 1; stroke-linecap: round; stroke-width: 4px; stroke: rgb(8, 10, 60);" d="M 92.564 175.194 L 130.329 175.179"/>
  <path style="fill: rgb(216, 216, 216); stroke-linecap: round; stroke-width: 4px; stroke: rgb(8, 10, 60);" d="M 164.252 173.297 L 176.324 173.352"/>
  <ellipse style="fill: none; stroke-linecap: round; stroke-width: 4px; stroke: rgb(8, 10, 60);" cx="173.981" cy="208.029" rx="7.573" ry="7.902"/>
  <text style="fill: rgb(8, 10, 60); font-family: Arial, sans-serif; font-size: 40px; font-style: italic; font-weight: 700; letter-spacing: -0.3px; text-anchor: middle; text-transform: capitalize; white-space: pre; transform-origin: 376.622px 201.802px;" transform="matrix(1.091383, 0.003651, 0, 1.144108, -52.605614, -22.554081)" x="364.402" y="215.555">Ship Sathi </text>
  <text style="white-space: pre; fill: rgb(51, 51, 51); font-family: Arial, sans-serif; font-size: 16.7px;" x="226.682" y="186.767"> </text>
  <text style="fill: rgb(8, 10, 60); font-family: Arial, sans-serif; font-size: 9px; font-style: italic; font-weight: 700; letter-spacing: -0.3px; text-anchor: middle; text-transform: capitalize; white-space: pre;" transform="matrix(1.255557, 0, 0, 1.27547, -145.99855, -82.88987)" x="362.347" y="231.398">Effortless Shipping, Endless Destinations.</text>
</svg>